<svg id="svg" version="1.1" xmlns="http://www.w3.org/2000/svg" xmlns:xlink="http://www.w3.org/1999/xlink" width="400" height="376.47058823529414" viewBox="0, 0, 400,376.47058823529414"><g id="svgg"><path id="path0" d="M183.804 3.390 L 183.804 6.780 166.478 6.780 C 155.179 6.780,149.153 6.911,149.153 7.156 C 149.153 7.363,148.814 7.533,148.399 7.533 C 147.985 7.533,147.646 7.715,147.646 7.937 C 147.646 8.601,146.623 9.416,145.790 9.416 C 145.361 9.416,145.009 9.586,145.009 9.793 C 145.009 10.000,144.708 10.169,144.339 10.169 C 143.971 10.169,143.425 10.508,143.126 10.923 C 142.828 11.337,142.282 11.676,141.913 11.676 C 141.522 11.676,141.243 11.955,141.243 12.346 C 141.243 12.715,140.904 13.261,140.490 13.559 C 140.075 13.858,139.736 14.404,139.736 14.772 C 139.736 15.141,139.567 15.443,139.360 15.443 C 139.153 15.443,138.983 15.878,138.983 16.411 C 138.983 18.303,138.436 18.456,131.638 18.456 C 125.295 18.456,124.294 18.661,124.294 19.962 C 124.294 20.705,123.257 21.469,122.249 21.469 C 121.716 21.469,121.281 21.638,121.281 21.846 C 121.281 22.053,121.014 22.222,120.689 22.222 C 120.363 22.222,119.843 22.476,119.532 22.787 C 119.221 23.098,118.640 23.352,118.241 23.352 C 117.795 23.352,117.514 23.612,117.514 24.022 C 117.514 24.391,117.175 24.937,116.761 25.235 C 116.347 25.534,116.008 26.080,116.008 26.448 C 116.008 26.817,115.838 27.119,115.631 27.119 C 115.424 27.119,115.254 27.529,115.254 28.029 C 115.254 30.114,115.206 30.132,109.564 30.132 C 106.327 30.132,104.331 30.275,104.331 30.508 C 104.331 30.716,103.896 30.885,103.363 30.885 C 102.127 30.885,101.318 31.694,101.318 32.930 C 101.318 33.462,101.149 33.898,100.942 33.898 C 100.714 33.898,100.565 35.468,100.565 37.853 L 100.565 41.808 95.651 41.808 C 88.856 41.808,88.889 41.774,88.889 48.759 L 88.889 53.861 83.804 53.861 C 80.910 53.861,78.719 54.012,78.719 54.212 C 78.719 54.405,78.380 54.671,77.966 54.802 C 77.260 55.026,77.213 55.372,77.213 60.289 L 77.213 65.537 72.505 65.537 C 69.617 65.537,67.797 65.682,67.797 65.913 C 67.797 66.121,67.458 66.290,67.043 66.290 C 66.541 66.290,66.290 66.541,66.290 67.043 C 66.290 67.458,66.121 67.797,65.913 67.797 C 65.682 67.797,65.537 69.617,65.537 72.505 L 65.537 77.213 62.524 77.213 C 60.766 77.213,59.510 77.370,59.510 77.589 C 59.510 77.797,58.832 77.966,58.004 77.966 C 57.175 77.966,56.497 78.136,56.497 78.343 C 56.497 78.550,56.158 78.719,55.744 78.719 C 55.253 78.719,54.991 78.970,54.991 79.441 C 54.991 79.838,54.779 80.234,54.520 80.320 C 54.163 80.439,54.016 82.956,53.915 90.709 L 53.781 100.942 49.301 100.942 C 46.837 100.942,44.821 101.090,44.821 101.271 C 44.821 101.452,44.313 101.702,43.691 101.827 C 42.882 101.989,42.561 102.269,42.561 102.815 C 42.561 103.235,42.392 103.578,42.185 103.578 C 41.942 103.578,41.808 107.407,41.808 114.313 L 41.808 125.047 40.113 125.047 C 39.181 125.047,38.418 125.217,38.418 125.424 C 38.418 125.631,37.740 125.800,36.911 125.800 C 36.083 125.800,35.405 125.970,35.405 126.177 C 35.405 126.384,35.143 126.554,34.823 126.554 C 34.069 126.554,32.392 128.231,32.392 128.985 C 32.392 129.305,32.222 129.567,32.015 129.567 C 31.808 129.567,31.638 130.245,31.638 131.073 C 31.638 131.902,31.469 132.580,31.262 132.580 C 31.055 132.580,30.885 133.512,30.885 134.652 C 30.885 135.791,30.716 136.723,30.508 136.723 C 30.259 136.723,30.132 154.300,30.132 188.701 C 30.132 223.101,30.259 240.678,30.508 240.678 C 30.721 240.678,30.885 241.745,30.885 243.126 C 30.885 244.507,31.049 245.574,31.262 245.574 C 31.469 245.574,31.638 246.083,31.638 246.704 C 31.638 247.326,31.808 247.834,32.015 247.834 C 32.222 247.834,32.392 248.096,32.392 248.416 C 32.392 249.170,34.069 250.847,34.823 250.847 C 35.143 250.847,35.405 251.017,35.405 251.224 C 35.405 251.431,35.913 251.601,36.535 251.601 C 37.156 251.601,37.665 251.770,37.665 251.977 C 37.665 252.185,38.597 252.354,39.736 252.354 L 41.808 252.354 41.808 262.712 C 41.808 269.366,41.943 273.070,42.185 273.070 C 42.392 273.070,42.561 273.421,42.561 273.850 C 42.561 274.911,43.437 275.706,44.606 275.706 C 45.139 275.706,45.574 275.876,45.574 276.083 C 45.574 276.311,47.193 276.460,49.677 276.460 L 53.781 276.460 53.915 286.692 C 54.016 294.446,54.163 296.962,54.520 297.081 C 54.779 297.167,54.991 297.563,54.991 297.960 C 54.991 298.431,55.253 298.682,55.744 298.682 C 56.158 298.682,56.497 298.851,56.497 299.058 C 56.497 299.266,57.175 299.435,58.004 299.435 C 58.832 299.435,59.510 299.605,59.510 299.812 C 59.510 300.031,60.766 300.188,62.524 300.188 L 65.537 300.188 65.537 304.896 C 65.537 307.784,65.682 309.605,65.913 309.605 C 66.121 309.605,66.290 309.944,66.290 310.358 C 66.290 310.860,66.541 311.111,67.043 311.111 C 67.458 311.111,67.797 311.281,67.797 311.488 C 67.797 311.719,69.617 311.864,72.505 311.864 L 77.213 311.864 77.213 316.778 C 77.213 323.546,77.208 323.540,83.975 323.540 L 88.889 323.540 88.889 328.642 C 88.889 335.627,88.856 335.593,95.651 335.593 L 100.565 335.593 100.565 339.925 C 100.565 342.561,100.712 344.256,100.942 344.256 C 101.149 344.256,101.318 344.522,101.318 344.848 C 101.318 345.609,102.225 346.516,102.986 346.516 C 103.312 346.516,103.578 346.685,103.578 346.893 C 103.578 347.127,105.699 347.269,109.188 347.269 C 115.241 347.269,115.254 347.274,115.254 349.372 C 115.254 349.873,115.424 350.282,115.631 350.282 C 115.838 350.282,116.008 350.584,116.008 350.953 C 116.008 351.321,116.347 351.867,116.761 352.166 C 117.175 352.464,117.514 352.925,117.514 353.190 C 117.514 353.455,117.816 353.672,118.184 353.672 C 118.553 353.672,119.099 354.011,119.397 354.426 C 119.696 354.840,120.242 355.179,120.610 355.179 C 120.979 355.179,121.281 355.348,121.281 355.556 C 121.281 355.763,121.716 355.932,122.249 355.932 C 123.257 355.932,124.294 356.696,124.294 357.439 C 124.294 358.710,125.326 358.945,130.885 358.945 C 137.223 358.945,137.476 359.053,137.476 361.743 C 137.476 362.690,137.646 363.465,137.853 363.465 C 138.060 363.465,138.230 363.893,138.230 364.417 C 138.230 366.433,141.213 368.695,144.242 368.977 C 145.700 369.112,146.893 369.368,146.893 369.546 C 146.893 369.723,147.232 369.868,147.646 369.868 C 148.060 369.868,148.399 370.038,148.399 370.245 C 148.399 370.491,154.551 370.621,166.102 370.621 L 183.804 370.621 183.804 373.635 L 183.804 376.648 217.326 376.648 L 250.847 376.648 250.847 373.635 L 250.847 370.621 268.738 370.621 C 280.414 370.621,286.629 370.491,286.629 370.245 C 286.629 370.038,286.968 369.868,287.382 369.868 C 287.801 369.868,288.136 369.617,288.136 369.303 C 288.136 368.895,288.554 368.738,289.642 368.738 C 290.471 368.738,291.149 368.569,291.149 368.362 C 291.149 368.154,291.488 367.985,291.902 367.985 C 292.316 367.985,292.655 367.815,292.655 367.608 C 292.655 367.401,292.915 367.232,293.233 367.232 C 293.983 367.232,296.422 364.792,296.422 364.043 C 296.422 363.725,296.591 363.465,296.798 363.465 C 297.006 363.465,297.175 363.126,297.175 362.712 C 297.175 362.298,297.345 361.959,297.552 361.959 C 297.759 361.959,297.928 361.281,297.928 360.452 L 297.928 358.945 304.520 358.945 C 308.663 358.945,311.111 358.805,311.111 358.569 C 311.111 358.362,311.450 358.192,311.864 358.192 C 312.279 358.192,312.618 358.023,312.618 357.815 C 312.618 357.608,313.380 357.439,314.313 357.439 C 315.245 357.439,316.008 357.269,316.008 357.062 C 316.008 356.855,316.436 356.685,316.959 356.685 C 318.127 356.685,321.281 353.670,321.281 352.552 C 321.281 352.133,321.450 351.789,321.657 351.789 C 321.864 351.789,322.034 351.014,322.034 350.067 C 322.034 347.445,322.386 347.269,327.657 347.269 C 330.437 347.269,332.203 347.123,332.203 346.893 C 332.203 346.685,332.470 346.516,332.795 346.516 C 333.556 346.516,334.463 345.609,334.463 344.848 C 334.463 344.522,334.633 344.256,334.840 344.256 C 335.069 344.256,335.217 342.561,335.217 339.925 L 335.217 335.593 340.464 335.593 C 345.381 335.593,345.727 335.546,345.951 334.840 C 346.083 334.426,346.348 334.087,346.541 334.087 C 346.742 334.087,346.893 331.824,346.893 328.814 L 346.893 323.540 351.995 323.540 C 358.979 323.540,358.945 323.574,358.945 316.778 L 358.945 311.864 363.859 311.864 C 370.627 311.864,370.621 311.870,370.621 305.102 L 370.621 300.188 373.823 300.188 C 375.706 300.188,377.024 300.033,377.024 299.812 C 377.024 299.605,377.625 299.435,378.360 299.435 C 380.171 299.435,381.544 298.061,381.544 296.251 C 381.544 295.516,381.714 294.915,381.921 294.915 C 382.162 294.915,382.298 291.588,382.298 285.687 L 382.298 276.460 386.817 276.460 C 389.579 276.460,391.337 276.313,391.337 276.083 C 391.337 275.876,391.519 275.706,391.741 275.706 C 392.262 275.706,393.220 274.748,393.220 274.227 C 393.220 274.005,393.390 273.823,393.597 273.823 C 393.840 273.823,393.974 269.868,393.974 262.712 L 393.974 251.601 396.987 251.601 L 400.000 251.601 400.000 205.650 L 400.000 159.699 396.987 159.699 L 393.974 159.699 393.974 154.802 C 393.974 151.789,393.829 149.906,393.597 149.906 C 393.390 149.906,393.220 149.652,393.220 149.341 C 393.220 149.030,392.966 148.776,392.655 148.776 C 392.345 148.776,392.090 148.606,392.090 148.399 C 392.090 147.799,359.448 147.891,358.723 148.493 C 358.411 148.752,357.748 149.346,357.249 149.812 C 356.751 150.278,356.158 150.659,355.932 150.659 C 355.314 150.659,353.672 152.425,353.672 153.090 C 353.672 153.476,353.319 153.672,352.626 153.672 C 352.011 153.672,351.355 153.983,351.036 154.426 C 350.737 154.840,350.090 155.179,349.597 155.179 C 349.088 155.179,348.246 155.666,347.646 156.309 C 346.506 157.529,345.951 157.708,345.606 156.968 C 345.430 156.591,345.342 156.591,345.166 156.968 C 345.046 157.227,344.452 157.439,343.848 157.439 C 343.244 157.439,342.750 157.608,342.750 157.815 C 342.750 158.023,342.072 158.192,341.243 158.192 C 340.414 158.192,339.736 158.362,339.736 158.569 C 339.736 158.776,338.889 158.945,337.853 158.945 C 336.817 158.945,335.970 159.115,335.970 159.322 C 335.970 159.549,334.401 159.699,332.015 159.699 C 329.630 159.699,328.060 159.848,328.060 160.075 C 328.060 160.282,327.624 160.452,327.092 160.452 C 325.856 160.452,325.047 161.261,325.047 162.497 C 325.047 163.029,324.878 163.465,324.670 163.465 C 324.424 163.465,324.294 171.061,324.294 185.499 L 324.294 207.533 322.034 207.533 C 320.778 207.533,319.774 207.700,319.774 207.910 C 319.774 208.117,319.266 208.286,318.644 208.286 C 318.023 208.286,317.514 208.456,317.514 208.663 C 317.514 208.870,317.237 209.040,316.899 209.040 C 316.189 209.040,314.878 210.421,314.878 211.169 C 314.878 211.448,314.708 211.676,314.501 211.676 C 314.294 211.676,314.124 212.185,314.124 212.806 C 314.124 213.427,313.955 213.936,313.748 213.936 C 313.538 213.936,313.371 214.940,313.371 216.196 C 313.371 217.451,313.204 218.456,312.994 218.456 C 312.752 218.456,312.618 222.482,312.618 229.782 C 312.618 243.412,313.193 242.185,306.807 242.185 C 304.129 242.185,302.072 242.337,302.072 242.536 C 302.072 242.729,301.733 242.995,301.318 243.126 C 300.612 243.350,300.565 243.696,300.565 248.613 L 300.565 253.861 296.610 253.861 C 294.225 253.861,292.655 254.010,292.655 254.237 C 292.655 254.444,292.220 254.614,291.687 254.614 C 290.451 254.614,289.642 255.423,289.642 256.659 C 289.642 257.191,289.473 257.627,289.266 257.627 C 289.038 257.627,288.889 259.196,288.889 261.582 L 288.889 265.537 284.181 265.537 C 281.293 265.537,279.473 265.682,279.473 265.913 C 279.473 266.121,279.134 266.290,278.719 266.290 C 278.217 266.290,277.966 266.541,277.966 267.043 C 277.966 267.458,277.797 267.797,277.589 267.797 C 277.358 267.797,277.213 269.617,277.213 272.505 L 277.213 277.213 270.621 277.213 C 266.478 277.213,264.030 277.353,264.030 277.589 C 264.030 277.805,262.900 277.966,261.394 277.966 C 259.887 277.966,258.757 278.128,258.757 278.343 C 258.757 278.550,258.326 278.719,257.798 278.719 C 256.564 278.719,254.991 280.293,254.991 281.527 C 254.991 282.054,254.821 282.486,254.614 282.486 C 254.406 282.486,254.237 283.475,254.237 284.699 C 254.237 285.916,254.131 287.441,254.002 288.089 L 253.766 289.266 217.655 289.266 L 181.544 289.266 181.544 286.252 C 181.544 284.495,181.387 283.239,181.168 283.239 C 180.960 283.239,180.791 282.810,180.791 282.285 C 180.791 281.124,178.514 278.719,177.414 278.719 C 176.992 278.719,176.648 278.550,176.648 278.343 C 176.648 278.123,175.392 277.966,173.635 277.966 C 171.877 277.966,170.621 277.809,170.621 277.589 C 170.621 277.355,168.424 277.213,164.783 277.213 L 158.945 277.213 158.945 272.881 C 158.945 270.245,158.798 268.550,158.569 268.550 C 158.362 268.550,158.192 268.284,158.192 267.958 C 158.192 267.197,157.285 266.290,156.524 266.290 C 156.199 266.290,155.932 266.121,155.932 265.913 C 155.932 265.683,154.175 265.537,151.412 265.537 L 146.893 265.537 146.893 261.582 C 146.893 259.196,146.743 257.627,146.516 257.627 C 146.309 257.627,146.139 257.217,146.139 256.716 C 146.139 255.153,145.742 254.614,144.592 254.614 C 143.993 254.614,143.503 254.444,143.503 254.237 C 143.503 254.009,141.871 253.861,139.360 253.861 L 135.217 253.861 135.217 248.964 C 135.217 245.951,135.072 244.068,134.840 244.068 C 134.633 244.068,134.463 243.814,134.463 243.503 C 134.463 243.189,134.128 242.938,133.710 242.938 C 133.296 242.938,132.957 242.768,132.957 242.561 C 132.957 242.330,131.136 242.185,128.249 242.185 L 123.540 242.185 123.540 230.697 C 123.540 223.289,123.407 219.209,123.164 219.209 C 122.957 219.209,122.787 218.870,122.787 218.456 C 122.787 218.041,122.618 217.702,122.411 217.702 C 122.203 217.702,122.034 216.855,122.034 215.819 C 122.034 214.783,121.864 213.936,121.657 213.936 C 121.450 213.936,121.281 213.427,121.281 212.806 C 121.281 212.185,121.117 211.676,120.917 211.676 C 120.716 211.676,119.959 211.083,119.234 210.358 C 118.421 209.545,117.550 209.040,116.962 209.040 C 116.437 209.040,116.008 208.870,116.008 208.663 C 116.008 208.456,115.317 208.286,114.474 208.286 C 111.728 208.286,111.864 209.313,111.864 188.701 C 111.864 168.088,111.728 169.115,114.474 169.115 C 115.317 169.115,116.008 168.945,116.008 168.738 C 116.008 168.531,116.436 168.362,116.959 168.362 C 118.127 168.362,121.281 165.346,121.281 164.228 C 121.281 163.809,121.450 163.465,121.657 163.465 C 121.864 163.465,122.034 162.618,122.034 161.582 C 122.034 160.546,122.203 159.699,122.411 159.699 C 122.618 159.699,122.787 159.360,122.787 158.945 C 122.787 158.531,122.957 158.192,123.164 158.192 C 123.407 158.192,123.540 154.112,123.540 146.704 L 123.540 135.217 128.454 135.217 C 135.222 135.217,135.217 135.222,135.217 128.454 L 135.217 123.540 139.360 123.540 C 141.871 123.540,143.503 123.392,143.503 123.164 C 143.503 122.957,143.993 122.787,144.592 122.787 C 145.742 122.787,146.139 122.248,146.139 120.685 C 146.139 120.184,146.309 119.774,146.516 119.774 C 146.743 119.774,146.893 118.205,146.893 115.819 L 146.893 111.864 151.789 111.864 C 154.802 111.864,156.685 111.720,156.685 111.488 C 156.685 111.281,157.024 111.111,157.439 111.111 C 157.941 111.111,158.192 110.860,158.192 110.358 C 158.192 109.944,158.362 109.605,158.569 109.605 C 158.800 109.605,158.945 107.784,158.945 104.896 L 158.945 100.188 165.913 100.188 C 170.308 100.188,172.881 100.049,172.881 99.812 C 172.881 99.599,173.949 99.435,175.330 99.435 C 176.711 99.435,177.778 99.271,177.778 99.058 C 177.778 98.851,178.040 98.682,178.360 98.682 C 179.113 98.682,180.791 97.004,180.791 96.251 C 180.791 95.930,180.960 95.669,181.168 95.669 C 181.383 95.669,181.544 94.539,181.544 93.032 C 181.544 91.525,181.706 90.395,181.921 90.395 C 182.128 90.395,182.298 89.887,182.298 89.266 L 182.298 88.136 218.025 88.136 L 253.753 88.136 253.995 90.451 C 254.128 91.724,254.237 93.419,254.237 94.217 C 254.237 95.015,254.407 95.669,254.614 95.669 C 254.821 95.669,254.991 95.930,254.991 96.251 C 254.991 97.004,256.668 98.682,257.422 98.682 C 257.742 98.682,258.004 98.851,258.004 99.058 C 258.004 99.268,259.008 99.435,260.264 99.435 C 261.519 99.435,262.524 99.602,262.524 99.812 C 262.524 100.659,299.196 100.289,299.812 99.435 C 300.255 98.819,300.787 98.682,302.720 98.682 C 304.020 98.682,305.085 98.585,305.085 98.467 C 305.085 97.915,303.913 97.175,303.040 97.175 C 302.323 97.175,302.072 96.980,302.072 96.422 C 302.072 95.920,302.323 95.669,302.825 95.669 C 303.239 95.669,303.578 95.499,303.578 95.292 C 303.578 95.085,303.840 94.915,304.160 94.915 C 304.914 94.915,306.591 93.238,306.591 92.484 C 306.591 92.164,306.761 91.902,306.968 91.902 C 307.175 91.902,307.345 91.563,307.345 91.149 C 307.345 90.647,307.596 90.395,308.098 90.395 C 308.656 90.395,308.851 90.647,308.851 91.364 C 308.851 92.237,309.591 93.409,310.143 93.409 C 310.261 93.409,310.358 92.222,310.358 90.772 C 310.358 88.387,310.430 88.136,311.111 88.136 C 311.787 88.136,311.864 87.884,311.864 85.687 C 311.864 84.306,312.029 83.239,312.241 83.239 C 312.461 83.239,312.618 81.984,312.618 80.226 L 312.618 77.213 315.443 77.213 C 317.075 77.213,318.267 77.054,318.267 76.836 C 318.267 76.629,319.042 76.460,319.989 76.460 C 321.767 76.460,322.787 75.851,322.787 74.791 C 322.787 74.466,322.957 74.200,323.164 74.200 C 323.410 74.200,323.540 67.859,323.540 55.932 C 323.540 44.005,323.410 37.665,323.164 37.665 C 322.957 37.665,322.787 36.817,322.787 35.782 C 322.787 34.746,322.618 33.898,322.411 33.898 C 322.203 33.898,322.034 33.632,322.034 33.306 C 322.034 32.545,321.127 31.638,320.366 31.638 C 320.040 31.638,319.774 31.469,319.774 31.262 C 319.774 31.055,318.927 30.885,317.891 30.885 C 316.855 30.885,316.008 30.716,316.008 30.508 C 316.008 30.301,315.075 30.132,313.936 30.132 L 311.864 30.132 311.864 26.177 C 311.864 23.792,311.715 22.222,311.488 22.222 C 311.281 22.222,311.111 21.786,311.111 21.254 C 311.111 20.018,310.302 19.209,309.066 19.209 C 308.534 19.209,308.098 19.040,308.098 18.832 C 308.098 18.591,304.520 18.456,298.117 18.456 L 288.136 18.456 288.136 14.313 C 288.136 11.802,287.987 10.169,287.759 10.169 C 287.552 10.169,287.382 9.679,287.382 9.080 C 287.382 7.972,286.839 7.533,285.468 7.533 C 285.071 7.533,284.746 7.363,284.746 7.156 C 284.746 6.910,277.338 6.780,263.277 6.780 L 241.808 6.780 241.808 3.390 L 241.808 0.000 212.806 0.000 L 183.804 0.000 183.804 3.390 M303.578 89.848 C 303.578 90.235,301.649 91.982,301.446 91.779 C 301.334 91.667,301.641 91.151,302.128 90.632 C 302.972 89.732,303.578 89.404,303.578 89.848 M305.838 90.772 C 305.838 90.979,305.669 91.149,305.461 91.149 C 305.254 91.149,305.085 91.415,305.085 91.741 C 305.085 92.489,304.182 93.409,303.448 93.409 C 303.140 93.409,302.812 93.621,302.719 93.879 C 302.627 94.138,302.427 94.235,302.276 94.095 C 302.124 93.954,302.736 93.077,303.637 92.145 C 305.294 90.429,305.838 90.089,305.838 90.772 " stroke="none" fill="#fcfcfc" fill-rule="evenodd"></path><path id="path1" d="M338.983 65.913 C 338.983 66.121,338.305 66.290,337.476 66.290 C 336.648 66.290,335.970 66.460,335.970 66.667 C 335.970 66.874,335.292 67.043,334.463 67.043 C 333.635 67.043,332.957 67.213,332.957 67.420 C 332.957 67.627,332.448 67.797,331.827 67.797 C 331.205 67.797,330.697 67.966,330.697 68.173 C 330.697 68.380,330.520 68.550,330.303 68.550 C 330.086 68.550,329.486 68.974,328.968 69.492 C 328.450 70.009,327.864 70.433,327.666 70.433 C 327.469 70.433,327.307 70.772,327.307 71.186 C 327.307 71.601,327.137 71.940,326.930 71.940 C 326.723 71.940,326.554 72.448,326.554 73.070 C 326.554 73.691,326.384 74.200,326.177 74.200 C 325.970 74.200,325.800 74.878,325.800 75.706 L 325.800 77.213 319.209 77.213 L 312.618 77.213 312.618 84.181 C 312.618 91.157,312.501 91.801,311.488 90.395 C 310.636 89.214,310.358 89.493,310.358 91.525 C 310.358 92.561,310.261 93.409,310.143 93.409 C 309.591 93.409,308.851 92.237,308.851 91.364 C 308.851 90.831,308.682 90.395,308.475 90.395 C 308.267 90.395,308.098 90.734,308.098 91.149 C 308.098 91.563,307.928 91.902,307.721 91.902 C 307.514 91.902,307.345 92.241,307.345 92.655 C 307.345 93.070,307.175 93.409,306.968 93.409 C 306.761 93.409,306.591 93.748,306.591 94.162 C 306.591 94.664,306.340 94.915,305.838 94.915 C 305.424 94.915,305.085 95.085,305.085 95.292 C 305.085 95.499,304.746 95.669,304.331 95.669 C 303.917 95.669,303.578 95.838,303.578 96.045 C 303.578 96.252,303.239 96.422,302.825 96.422 C 302.411 96.422,302.072 96.591,302.072 96.798 C 302.072 97.006,302.507 97.175,303.040 97.175 C 303.913 97.175,305.085 97.915,305.085 98.467 C 305.085 98.585,304.237 98.682,303.202 98.682 C 301.169 98.682,300.890 98.960,302.072 99.812 C 302.975 100.463,303.044 100.942,302.233 100.942 C 300.798 100.942,300.565 101.831,300.565 107.318 L 300.565 112.618 295.480 112.618 C 292.341 112.618,290.395 112.762,290.395 112.994 C 290.395 113.202,290.056 113.371,289.642 113.371 C 288.924 113.371,288.889 113.622,288.889 118.832 L 288.889 124.294 277.213 124.294 C 269.680 124.294,265.537 124.427,265.537 124.670 C 265.537 124.886,264.407 125.047,262.900 125.047 C 261.394 125.047,260.264 125.209,260.264 125.424 C 260.264 125.631,259.755 125.800,259.134 125.800 C 258.512 125.800,258.004 125.970,258.004 126.177 C 258.004 126.384,257.737 126.554,257.412 126.554 C 256.651 126.554,255.744 127.460,255.744 128.222 C 255.744 128.547,255.574 128.814,255.367 128.814 C 255.160 128.814,254.991 129.322,254.991 129.944 C 254.991 130.565,254.821 131.073,254.614 131.073 C 254.401 131.073,254.237 132.141,254.237 133.522 L 254.237 135.970 220.527 135.970 C 198.305 135.970,186.817 136.098,186.817 136.347 C 186.817 136.554,186.381 136.723,185.849 136.723 C 184.613 136.723,183.804 137.532,183.804 138.768 C 183.804 139.301,183.635 139.736,183.427 139.736 C 183.199 139.736,183.051 141.368,183.051 143.879 L 183.051 148.023 177.966 148.023 C 175.072 148.023,172.881 148.174,172.881 148.374 C 172.881 148.567,172.542 148.833,172.128 148.964 C 171.422 149.188,171.375 149.534,171.375 154.451 L 171.375 159.699 168.738 159.699 C 167.232 159.699,166.102 159.860,166.102 160.075 C 166.102 160.282,165.292 160.452,164.302 160.452 C 162.892 160.452,162.381 160.625,161.948 161.251 C 161.643 161.691,161.182 162.272,160.923 162.543 C 160.664 162.813,160.452 163.725,160.452 164.568 C 160.452 165.412,160.282 166.102,160.075 166.102 C 159.828 166.102,159.699 174.576,159.699 190.772 C 159.699 206.968,159.828 215.443,160.075 215.443 C 160.282 215.443,160.452 215.782,160.452 216.196 C 160.452 216.614,160.703 216.949,161.017 216.949 C 161.328 216.949,161.582 217.119,161.582 217.326 C 161.582 217.558,163.465 217.702,166.478 217.702 L 171.375 217.702 171.375 223.540 C 171.375 227.181,171.517 229.379,171.751 229.379 C 171.959 229.379,172.128 230.226,172.128 231.262 C 172.128 232.298,172.298 233.145,172.505 233.145 C 172.712 233.145,172.881 233.823,172.881 234.652 C 172.881 235.480,173.051 236.158,173.258 236.158 C 173.465 236.158,173.635 236.420,173.635 236.740 C 173.635 237.494,175.312 239.171,176.066 239.171 C 176.386 239.171,176.648 239.341,176.648 239.548 C 176.648 239.755,177.241 239.925,177.966 239.925 C 178.691 239.925,179.284 240.094,179.284 240.301 C 179.284 240.508,180.132 240.678,181.168 240.678 C 182.203 240.678,183.051 240.847,183.051 241.055 C 183.051 241.290,185.374 241.431,189.266 241.431 L 195.480 241.431 195.480 244.256 C 195.480 245.888,195.639 247.081,195.857 247.081 C 196.064 247.081,196.234 247.510,196.234 248.035 C 196.234 248.622,196.737 249.492,197.539 250.295 C 198.342 251.098,199.213 251.601,199.799 251.601 C 200.324 251.601,200.753 251.770,200.753 251.977 C 200.753 252.197,202.009 252.354,203.766 252.354 C 205.524 252.354,206.780 252.511,206.780 252.731 C 206.780 252.973,210.672 253.107,217.702 253.107 C 224.733 253.107,228.625 252.973,228.625 252.731 C 228.625 252.511,229.881 252.354,231.638 252.354 C 233.396 252.354,234.652 252.197,234.652 251.977 C 234.652 251.770,235.160 251.601,235.782 251.601 C 236.403 251.601,236.911 251.431,236.911 251.224 C 236.911 251.017,237.255 250.847,237.674 250.847 C 238.220 250.847,238.501 250.527,238.663 249.718 C 238.787 249.096,239.037 248.588,239.218 248.588 C 239.400 248.588,239.548 248.079,239.548 247.458 C 239.548 246.836,239.718 246.328,239.925 246.328 C 240.137 246.328,240.301 245.261,240.301 243.879 L 240.301 241.431 246.704 241.431 C 250.722 241.431,253.107 241.291,253.107 241.055 C 253.107 240.847,253.362 240.678,253.672 240.678 C 253.983 240.678,254.237 240.508,254.237 240.301 C 254.237 240.094,255.085 239.925,256.121 239.925 C 257.156 239.925,258.004 239.755,258.004 239.548 C 258.004 239.341,258.343 239.171,258.757 239.171 C 259.171 239.171,259.510 239.002,259.510 238.795 C 259.510 238.588,259.777 238.418,260.102 238.418 C 260.863 238.418,261.770 237.511,261.770 236.750 C 261.770 236.425,261.940 236.158,262.147 236.158 C 262.354 236.158,262.524 235.819,262.524 235.405 C 262.524 234.991,262.693 234.652,262.900 234.652 C 263.107 234.652,263.277 233.804,263.277 232.768 C 263.277 231.733,263.446 230.885,263.653 230.885 C 263.861 230.885,264.030 230.546,264.030 230.132 C 264.030 229.718,264.200 229.379,264.407 229.379 C 264.642 229.379,264.783 227.181,264.783 223.540 L 264.783 217.702 268.738 217.702 C 271.124 217.702,272.693 217.553,272.693 217.326 C 272.693 217.119,273.129 216.949,273.662 216.949 C 274.897 216.949,275.706 216.140,275.706 214.904 C 275.706 214.372,275.876 213.936,276.083 213.936 C 276.324 213.936,276.460 210.474,276.460 204.305 C 276.460 192.978,276.232 193.597,280.387 193.597 C 282.037 193.597,283.239 193.438,283.239 193.220 C 283.239 193.013,283.578 192.844,283.992 192.844 C 284.407 192.844,284.746 192.674,284.746 192.467 C 284.746 192.260,285.000 192.090,285.311 192.090 C 285.625 192.090,285.876 191.756,285.876 191.337 C 285.876 190.923,286.045 190.584,286.252 190.584 C 286.460 190.584,286.629 190.245,286.629 189.831 C 286.629 189.416,286.798 189.077,287.006 189.077 C 287.225 189.077,287.382 187.822,287.382 186.064 C 287.382 184.306,287.539 183.051,287.759 183.051 C 287.966 183.051,288.136 182.119,288.136 180.979 C 288.136 179.159,288.227 178.908,288.889 178.908 C 289.303 178.908,289.642 178.738,289.642 178.531 C 289.642 178.324,289.981 178.154,290.395 178.154 C 290.810 178.154,291.149 177.985,291.149 177.778 C 291.149 177.571,291.409 177.401,291.726 177.401 C 292.476 177.401,294.915 174.962,294.915 174.212 C 294.915 173.895,295.085 173.635,295.292 173.635 C 295.499 173.635,295.669 173.296,295.669 172.881 C 295.669 172.467,295.838 172.128,296.045 172.128 C 296.252 172.128,296.422 171.789,296.422 171.375 C 296.422 170.674,296.673 170.621,300.000 170.621 C 302.134 170.621,303.578 170.469,303.578 170.245 C 303.578 170.036,304.583 169.868,305.838 169.868 C 307.094 169.868,308.098 169.701,308.098 169.492 C 308.098 169.284,308.364 169.115,308.690 169.115 C 309.451 169.115,310.358 168.208,310.358 167.447 C 310.358 167.121,310.527 166.855,310.734 166.855 C 310.942 166.855,311.111 165.923,311.111 164.783 C 311.111 163.644,311.281 162.712,311.488 162.712 C 311.695 162.712,311.864 161.864,311.864 160.829 L 311.864 158.945 323.917 158.945 C 331.701 158.945,335.970 158.812,335.970 158.569 C 335.970 158.362,336.309 158.192,336.723 158.192 C 337.149 158.192,337.476 157.941,337.476 157.615 C 337.476 156.865,339.916 154.426,340.665 154.426 C 340.983 154.426,341.243 154.256,341.243 154.049 C 341.243 153.842,341.582 153.672,341.996 153.672 C 342.411 153.672,342.750 153.503,342.750 153.296 C 342.750 153.089,343.089 152.919,343.503 152.919 C 343.917 152.919,344.256 152.750,344.256 152.542 C 344.256 152.335,344.595 152.166,345.009 152.166 C 345.424 152.166,345.763 151.996,345.763 151.789 C 345.763 151.582,346.186 151.412,346.704 151.412 C 347.222 151.412,347.646 151.243,347.646 151.036 C 347.646 150.829,347.985 150.659,348.399 150.659 C 348.888 150.659,349.153 150.408,349.153 149.945 C 349.153 149.326,349.553 149.196,352.166 148.964 C 353.823 148.818,355.179 148.546,355.179 148.360 C 355.179 148.174,356.026 148.023,357.062 148.023 C 358.098 148.023,358.945 147.853,358.945 147.646 C 358.945 147.405,362.461 147.269,368.738 147.269 C 375.016 147.269,378.531 147.134,378.531 146.893 C 378.531 146.685,378.967 146.516,379.500 146.516 C 380.735 146.516,381.544 145.707,381.544 144.471 C 381.544 143.939,381.714 143.503,381.921 143.503 C 382.163 143.503,382.298 139.602,382.298 132.553 C 382.298 120.692,382.326 120.527,384.342 120.527 C 384.875 120.527,385.311 120.358,385.311 120.151 C 385.311 119.944,385.612 119.774,385.981 119.774 C 386.349 119.774,386.895 119.435,387.194 119.021 C 387.493 118.606,388.038 118.267,388.407 118.267 C 388.776 118.267,389.077 118.051,389.077 117.786 C 389.077 117.521,389.416 117.059,389.831 116.761 C 390.245 116.462,390.584 115.916,390.584 115.548 C 390.584 115.179,390.753 114.878,390.960 114.878 C 391.168 114.878,391.337 114.383,391.337 113.779 C 391.337 113.175,391.549 112.582,391.808 112.461 C 392.185 112.285,392.185 112.197,391.808 112.021 C 391.549 111.901,391.337 111.307,391.337 110.703 C 391.337 110.099,391.168 109.605,390.960 109.605 C 390.753 109.605,390.584 109.303,390.584 108.934 C 390.584 108.566,390.245 108.020,389.831 107.721 C 389.416 107.423,389.077 106.877,389.077 106.508 C 389.077 106.117,388.798 105.838,388.407 105.838 C 388.038 105.838,387.493 105.499,387.194 105.085 C 386.895 104.670,386.349 104.331,385.981 104.331 C 385.612 104.331,385.311 104.162,385.311 103.955 C 385.311 103.748,384.875 103.578,384.342 103.578 C 382.329 103.578,382.298 103.398,382.298 91.741 C 382.298 84.818,382.163 80.979,381.921 80.979 C 381.714 80.979,381.544 80.543,381.544 80.011 C 381.544 78.775,380.735 77.966,379.500 77.966 C 378.967 77.966,378.531 77.797,378.531 77.589 C 378.531 77.358,376.639 77.213,373.608 77.213 C 368.257 77.213,367.608 76.992,367.608 75.168 C 367.608 74.635,367.439 74.200,367.232 74.200 C 367.024 74.200,366.855 73.898,366.855 73.529 C 366.855 73.161,366.516 72.615,366.102 72.316 C 365.687 72.018,365.348 71.472,365.348 71.103 C 365.348 70.693,365.067 70.433,364.622 70.433 C 364.222 70.433,363.641 70.179,363.331 69.868 C 363.020 69.557,362.499 69.303,362.174 69.303 C 361.848 69.303,361.582 69.134,361.582 68.927 C 361.582 68.719,361.226 68.550,360.791 68.550 C 360.357 68.550,359.526 68.041,358.945 67.420 C 358.151 66.569,357.555 66.290,356.534 66.290 C 355.789 66.290,355.179 66.121,355.179 65.913 C 355.179 65.674,352.228 65.537,347.081 65.537 C 341.933 65.537,338.983 65.674,338.983 65.913 M314.878 78.181 C 314.878 78.461,313.866 79.473,313.586 79.473 C 313.468 79.473,313.371 79.134,313.371 78.719 C 313.371 78.217,313.622 77.966,314.124 77.966 C 314.539 77.966,314.878 78.063,314.878 78.181 M304.011 92.506 C 303.325 93.282,303.766 93.651,304.502 92.915 C 304.822 92.595,305.085 92.236,305.085 92.117 C 305.085 91.722,304.525 91.924,304.011 92.506 M218.456 174.388 C 218.456 176.648,218.606 178.154,218.832 178.154 C 219.040 178.154,219.209 178.651,219.209 179.259 C 219.209 180.033,219.435 180.435,219.962 180.603 C 220.377 180.734,220.716 181.000,220.716 181.193 C 220.716 181.386,221.224 181.544,221.846 181.544 C 222.467 181.544,222.976 181.714,222.976 181.921 C 222.976 182.146,224.419 182.298,226.554 182.298 L 230.132 182.298 230.132 189.038 L 230.132 195.778 227.119 196.045 C 225.461 196.192,224.105 196.464,224.105 196.649 C 224.105 196.835,223.930 196.987,223.716 196.987 C 223.109 196.987,220.716 199.531,220.716 200.176 C 220.716 200.493,220.546 200.753,220.339 200.753 C 220.132 200.753,219.962 201.431,219.962 202.260 C 219.962 203.089,219.793 203.766,219.586 203.766 C 219.379 203.766,219.209 204.444,219.209 205.273 C 219.209 206.640,219.119 206.780,218.241 206.780 C 216.812 206.780,216.196 205.937,216.196 203.982 C 216.196 203.035,216.026 202.260,215.819 202.260 C 215.612 202.260,215.443 201.832,215.443 201.308 C 215.443 200.011,212.419 196.987,211.121 196.987 C 210.598 196.987,210.169 196.817,210.169 196.610 C 210.169 196.403,209.505 196.234,208.694 196.234 C 205.916 196.234,206.026 196.532,206.026 189.037 L 206.026 182.298 209.228 182.298 C 211.111 182.298,212.429 182.142,212.429 181.921 C 212.429 181.714,213.107 181.544,213.936 181.544 C 214.765 181.544,215.443 181.386,215.443 181.193 C 215.443 181.000,215.782 180.734,216.196 180.603 C 216.781 180.417,216.949 180.033,216.949 178.882 C 216.949 178.068,217.119 177.401,217.326 177.401 C 217.549 177.401,217.702 176.020,217.702 174.011 C 217.702 172.003,217.856 170.621,218.079 170.621 C 218.305 170.621,218.456 172.128,218.456 174.388 " stroke="none" fill="#fc813c" fill-rule="evenodd"></path><path id="path2" d="" stroke="none" fill="#fc100cc" fill-rule="evenodd"></path><path id="path3" d="" stroke="none" fill="#fc100cc" fill-rule="evenodd"></path><path id="path4" d="" stroke="none" fill="#fc100cc" fill-rule="evenodd"></path></g></svg>